<svg id="Layer_1" data-name="Layer 1" xmlns="http://www.w3.org/2000/svg" viewBox="0 0 1549.05 696.48"><defs><style>.cls-1{fill:#3c4b64;}</style></defs><title>coreui-base-logo</title><path class="cls-1" d="M566.13,132.85l.52.91-1.57-.91-35-20.17L350.73,9.11a30.11,30.11,0,0,0-30.14,0L106.25,132.85H7.32L31,173.79,54.7,214.92l1.64,2.83V466.81a30.15,30.15,0,0,0,15.07,26.11L287.1,617.45l1.9,1.09-.62,1.11,23.81,41.23,23.47,40.67,48.56-84.1,72.75-42,35.58-20.54L531,532.71l68.92-39.79c.81-.47,1.61-1,2.36-1.52a30.15,30.15,0,0,0,12.59-21.8c.08-.92.13-1.85.13-2.79V217.75l.07-.14,2.21-3.83,0,0,22.65-39.22,1-1.8,0,0,23-39.85ZM316.49,71.66a30.1,30.1,0,0,1,30.13-.49l111,61.68H365.46l-30.33-17.5-30.32,17.5H214.38ZM127.63,465.19a30.13,30.13,0,0,1-15.49-25.86L111,369.55l-.67-41.07L110,310.77l10.24,17.73L144,369.64l10.86,18.8v39.1l33.86,19.54L233,523.75Zm281.61,24.88-.23.42-.53.94-.23.39-17.76,31.26-25.66,45.16-5.91,10.4L335.4,620l-23.81-41.25L301.91,562l-43-74.44-68-117.85L169.65,333h.63l-2.5-4.35-12.89-22.32-46.22-80.06L102.21,215,79,174.85h.18l-.18-.32H225.51l1.77,3.08,21.83,37.8h-.39l3.65,6.32,41.3,71.53h-.1l-47.4-.12-41.3-71.52-3.65-6.33-39.05-.09-12.47,0,5.19,9,49.45,85.63,10.94,19,1.85,3.21,77.53.2,9.08,0,12.8,0,10.95,19,10.94,18.95,1.86,3.22-12.8,0-9.08,0-77.53-.19L239,369.88h-.64l1.87,3.22,45,78,44.79,77.6h0l5,8.72,4.89-8.61L360.92,492l-47.64-82.51,45.94.12h1.56l23.66,41,.22-.39,22.87,39.61,2.58-1.5h0l.2-.11Zm139-31.74-4.79,2.87-12.55,7.52-65.44,39.22-27.52,16.5,18.52-32.09,26.65-46.18,32.29-18.63V390.27L524.2,375l36.69-63.55,2,120.54A30.11,30.11,0,0,1,548.22,458.33Zm42.51-282.86-22.1,38.27-1.61,2.8-7.47,12.92L515.38,306l-10.24,17.73-5.27,9.13-.08-.15-6.16,10.67-12.29,21.28-5.27,9.13-6.15,10.67L455.74,409,432,450.06l0,0-24.3-42.1-17.91-31-2.07-3.57-1.85-3.22-10.95-18.95L364,332.2,362.12,329,296.55,215.41l-23.61-40.88h47.44l23.66,41L409.61,329.1l21.8,37.74,14.18-24.54,6.15-10.66,5.27-9.13-3.34-5.79-1.85-3.21L386.25,199.93l-14.67-25.4H419l14.73,25.52,47,81.38,34.65-60,4.46-7.73-14.37,0h-3l-25,0V175.26l.42-.73H591.27Z" transform="translate(-7.32 -5.07)"/><path class="cls-1" d="M707.05,133.73H829a6.08,6.08,0,0,1,6.07,6.08v18a6.07,6.07,0,0,1-6.07,6.07h-88.1a6.08,6.08,0,0,0-6.08,6.08v60a6.08,6.08,0,0,0,6.08,6.08h84.71a6.08,6.08,0,0,1,6.08,6.08v18.15a6.08,6.08,0,0,1-6.08,6.08H740.92a6.08,6.08,0,0,0-6.08,6.08v61.34a6.08,6.08,0,0,0,6.08,6.08h91.31a6.08,6.08,0,0,1,6.08,6.08v18a6.08,6.08,0,0,1-6.08,6.08H707.05A6.08,6.08,0,0,1,701,363.9V139.81A6.08,6.08,0,0,1,707.05,133.73Z" transform="translate(-7.32 -5.07)"/><path class="cls-1" d="M933,271.19l-25.74-15.64q-24.22-14.79-34.46-29.1a55.08,55.08,0,0,1-10.25-32.94q0-27.94,19.39-45.39t50.38-17.44a94.9,94.9,0,0,1,47.83,12.58,12.86,12.86,0,0,1,6.54,11.14v5.67a12.74,12.74,0,0,1-19.07,11.08,70.62,70.62,0,0,0-36-10q-16.61,0-27.27,7.68t-10.67,19.65q0,10.63,7.86,19.91t25.28,19.48l25.86,15.31Q996,269.05,996,309q0,28.46-19.05,46.23T927.39,373a103.26,103.26,0,0,1-58.08-17.49,12.81,12.81,0,0,1-5.76-10.68v-6a12.74,12.74,0,0,1,20.27-10.31q19.8,14.68,43.23,14.68,15.91,0,26.51-8.86t10.58-22.19Q964.14,290.57,933,271.19Z" transform="translate(-7.32 -5.07)"/><path class="cls-1" d="M1091.83,271.19l-25.74-15.64q-24.21-14.79-34.46-29.1a55.14,55.14,0,0,1-10.25-32.94q0-27.94,19.39-45.39t50.39-17.44a94.87,94.87,0,0,1,46.6,11.9,15.07,15.07,0,0,1,7.76,13.22V156a15.16,15.16,0,0,1-22.27,13.35,69.88,69.88,0,0,0-32.77-8.23q-16.61,0-27.27,7.68t-10.67,19.65q0,10.63,7.86,19.91t25.28,19.48l25.87,15.31q43.28,25.86,43.28,65.82,0,28.46-19,46.23T1086.25,373a103.1,103.1,0,0,1-57-16.79,15,15,0,0,1-6.84-12.66v-.13c0-12.19,13.57-19.24,23.72-12.47a70.36,70.36,0,0,0,39.79,12.25q15.91,0,26.5-8.86T1123,312.17Q1123,290.57,1091.83,271.19Z" transform="translate(-7.32 -5.07)"/><path class="cls-1" d="M1390.25,354,1294.5,139.25a11.59,11.59,0,0,0-10.59-6.88h-8.63a11.58,11.58,0,0,0-10.65,7L1172.9,354.17a11.6,11.6,0,0,0,10.66,16.15h9.57a11.6,11.6,0,0,0,10.68-7.09l23.58-55.94a11.6,11.6,0,0,1,10.68-7.09h85.75a11.59,11.59,0,0,1,10.57,6.84l25.39,56.44a11.58,11.58,0,0,0,10.57,6.84h9.31A11.6,11.6,0,0,0,1390.25,354Zm-90.71-83.95h-38.39a11.6,11.6,0,0,1-10.71-16l18.47-44.71a11.59,11.59,0,0,1,21.3-.29l19.92,44.71A11.6,11.6,0,0,1,1299.54,270.06Z" transform="translate(-7.32 -5.07)"/><path class="cls-1" d="M1533.32,133.73h11.29a11.74,11.74,0,0,1,9.24,19l-70,89.26a11.76,11.76,0,0,0-2.5,7.25V358.58a11.74,11.74,0,0,1-11.74,11.74h-11.24a11.74,11.74,0,0,1-11.74-11.74V249.22a11.76,11.76,0,0,0-2.5-7.25l-70-89.26a11.74,11.74,0,0,1,9.23-19h11a11.74,11.74,0,0,1,9.27,4.54l50.58,65.16a11.74,11.74,0,0,0,18.5.06l51.36-65.28A11.75,11.75,0,0,1,1533.32,133.73Z" transform="translate(-7.32 -5.07)"/><path class="cls-1" d="M889,430.41h12.84a3.13,3.13,0,0,1,2.9,4.29l-53,131.54a3.13,3.13,0,0,1-2.9,2h-.1a3.12,3.12,0,0,1-2.89-2L804.66,463.8a3.13,3.13,0,0,0-5.8,0L757.24,566.25a3.12,3.12,0,0,1-2.9,2h0a3.14,3.14,0,0,1-2.9-2L698.65,434.7a3.13,3.13,0,0,1,2.9-4.29h9.28a8.69,8.69,0,0,1,8.08,5.47l32.73,81.87a3.12,3.12,0,0,0,5.8,0l34.37-85.39a3.11,3.11,0,0,1,2.9-2h14.35a3.11,3.11,0,0,1,2.89,1.95l34.53,85.38a3.12,3.12,0,0,0,5.8,0l33.77-85.34A3.12,3.12,0,0,1,889,430.41Z" transform="translate(-7.32 -5.07)"/><path class="cls-1" d="M922.23,562.5v-127a5.11,5.11,0,0,1,5.11-5.11h29.27q20.82,0,33,10.31t12.23,27.89q0,12-6,20.73A33.54,33.54,0,0,1,985.63,499a5.1,5.1,0,0,0-.82,8.14,71.42,71.42,0,0,1,6.76,7q6.28,7.47,17.68,26,7.17,11.68,11.49,17.58l1.23,1.67a5.11,5.11,0,0,1-4.11,8.15h-10.48a5.09,5.09,0,0,1-4.26-2.29l-4.47-6.75c-.2-.33-.59-.88-1.18-1.67l-3.72-5.26-.2-.3-6-9.87-6.46-10.54-.23-.34a107,107,0,0,0-11-13.28,42.69,42.69,0,0,0-9.15-7.21q-4.08-2.21-13.71-2.2h0a5.11,5.11,0,0,0-5.12,5.11V562.5a5.11,5.11,0,0,1-5.11,5.11h-9.42A5.11,5.11,0,0,1,922.23,562.5Zm25.54-115.4H947a5.12,5.12,0,0,0-5.12,5.12V485.3a5.12,5.12,0,0,0,5.12,5.12h2.35q14.92,0,20.48-2.56a19.2,19.2,0,0,0,8.64-7.71,22.39,22.39,0,0,0,3.09-11.73,20.9,20.9,0,0,0-3.44-11.74,18.43,18.43,0,0,0-9.67-7.42Q962.2,447.12,947.77,447.1Z" transform="translate(-7.32 -5.07)"/><path class="cls-1" d="M1050.91,430.41h4.48A7.57,7.57,0,0,1,1063,438V560a7.58,7.58,0,0,1-7.58,7.58h-4.48a7.58,7.58,0,0,1-7.58-7.58V438A7.57,7.57,0,0,1,1050.91,430.41Z" transform="translate(-7.32 -5.07)"/><path class="cls-1" d="M1086.3,430.21h105.47a4.57,4.57,0,0,1,4.57,4.57v8.34a4.56,4.56,0,0,1-4.57,4.57h-38.69a4.58,4.58,0,0,0-4.57,4.57V563a4.56,4.56,0,0,1-4.57,4.57h-10.6a4.57,4.57,0,0,1-4.57-4.57V452.26a4.57,4.57,0,0,0-4.57-4.57h-37.9a4.57,4.57,0,0,1-4.57-4.57v-8.34A4.58,4.58,0,0,1,1086.3,430.21Z" transform="translate(-7.32 -5.07)"/><path class="cls-1" d="M1222.21,430.41h5.43a7.11,7.11,0,0,1,7.11,7.1v123a7.11,7.11,0,0,1-7.11,7.11h-5.43a7.11,7.11,0,0,1-7.11-7.11v-123A7.1,7.1,0,0,1,1222.21,430.41Z" transform="translate(-7.32 -5.07)"/><path class="cls-1" d="M1383.44,430.41h.2a9.23,9.23,0,0,1,9.23,9.23V558.38a9.23,9.23,0,0,1-9.23,9.23h-3.45a9.21,9.21,0,0,1-7-3.18l-72.77-83.82a9.24,9.24,0,0,0-16.21,6.05v71.72a9.23,9.23,0,0,1-9.23,9.23h0a9.23,9.23,0,0,1-9.23-9.23V439.64a9.23,9.23,0,0,1,9.23-9.23h2.47a9.21,9.21,0,0,1,7,3.18L1358,518.31a9.24,9.24,0,0,0,16.21-6V439.64A9.23,9.23,0,0,1,1383.44,430.41Z" transform="translate(-7.32 -5.07)"/><path class="cls-1" d="M1503.64,500H1535a7.49,7.49,0,0,1,7.49,7.49v44.34a9.43,9.43,0,0,1-6.1,8.8,122.84,122.84,0,0,1-44.19,8.51q-34.08,0-54.46-19.89t-20.38-49q0-30.75,21.12-51.17t52.94-20.43a93.81,93.81,0,0,1,22,2.5,157.09,157.09,0,0,1,19.59,6.45,10.57,10.57,0,0,1,6.73,9.83v3.83a5.46,5.46,0,0,1-7.84,4.92q-20.58-10.05-40.88-10.05-22.49,0-37.91,15.32t-15.42,37.62q0,23.37,15.42,38.2t39.68,14.83q11.79,0,28.19-5.4h0a2.66,2.66,0,0,0,1.86-2.54v-24a2.67,2.67,0,0,0-2.67-2.67H1503.8a7.42,7.42,0,0,1-7.42-7.41v-2.82A7.26,7.26,0,0,1,1503.64,500Z" transform="translate(-7.32 -5.07)"/></svg>