<?xml version="1.0" encoding="utf-8"?>
<!-- Generator: Adobe Illustrator 24.0.1, SVG Export Plug-In . SVG Version: 6.00 Build 0)  -->
<svg version="1.1" id="Layer_1" xmlns="http://www.w3.org/2000/svg" xmlns:xlink="http://www.w3.org/1999/xlink" x="0px" y="0px"
	 viewBox="0 0 1000 176" style="enable-background:new 0 0 1000 176;" xml:space="preserve">
<style type="text/css">
	.st0{fill:#FFFFFF;}
	.st1{display:none;fill:none;stroke:#000000;stroke-miterlimit:10;}
	.st2{fill:#E66030;}
	.st3{enable-background:new    ;}
	.st4{fill:#6D6F72;}
</style>
<path class="st0" d="M143.3,35.5L143.3,35.5l-106,0.1V176h-0.1c-19.6,0-35.5-15.9-35.5-35.5V0h106.1C127.4,0,143.3,15.9,143.3,35.5z
	"/>
<polyline class="st1" points="37.3,176 37.3,35.6 143.3,35.6 "/>
<polyline class="st1" points="72.4,176 72.4,139.6 143.3,139.6 "/>
<polyline class="st1" points="125.1,106 72.4,106 72.4,69.6 125.1,69.6 "/>
<path class="st2" d="M143.3,87.8c0,10.1-8.2,18.2-18.2,18.2H72.4V69.6h52.7C135.2,69.6,143.3,77.7,143.3,87.8z"/>
<path class="st0" d="M143.3,139.6v0.2c0,20-16.2,36.2-36.2,36.2H72.4v-36.4L143.3,139.6L143.3,139.6z"/>
<path class="st0" d="M256.8,89.1v23.5h-74.1V14.1h74.1v22.7h-44.5v14.3h35.9V73h-35.9v16.1H256.8z"/>
<path class="st0" d="M296.2,14.1v98.5h-28.4V14.1H296.2z"/>
<path class="st0" d="M340.1,11v22.8h-28.8V11H340.1z M340.1,39.3v73.4h-28.8V39.3H340.1z"/>
<path class="st0" d="M400.6,39.3V58H386V85c0,3.7,0.7,5.9,2.1,6.6c1.4,0.7,2.8,1.1,4.3,1.1c2.3,0,5-0.4,8.2-1.2v20.5
	c-5.7,1.1-11.3,1.7-16.8,1.7c-8.9,0-15.4-1.9-19.5-5.7c-4.2-3.8-6.2-9.9-6.2-18.2l0.1-8.6V58h-11V39.3h11l0.4-23.9l27.4-0.4v24.3
	L400.6,39.3L400.6,39.3z"/>
<path class="st0" d="M458.7,86.3l26.9,1.8c-1.6,7.2-5.6,13.4-12.2,18.4c-6.5,5.1-15.3,7.6-26.5,7.6c-12.4,0-22.2-3.6-29.6-10.7
	c-7.4-7.2-11-16-11-26.6c0-11,3.6-20.2,10.9-27.8s17-11.3,29.1-11.3c11.7,0,21.2,3.6,28.5,10.7c7.2,7.1,10.9,16.8,10.9,29.1
	c0,1,0,2.4-0.1,4.2h-49.2c0.1,4.6,0.9,8.1,2.5,10.3s4.5,3.4,8.8,3.4C454,95.3,457.6,92.3,458.7,86.3z M456.8,67.3c0-5-1-8.3-3-10
	c-1.9-1.7-4.4-2.6-7.2-2.6c-6.8,0-10.2,4.2-10.2,12.6H456.8z"/>
<path class="st2" d="M626.6,76.9v35.8h-30.7V14.1H638c10.5,0,18.5,1.2,23.9,3.6s9.8,6.1,13,11c3.2,5,4.8,10.5,4.8,16.7
	c0,9.4-3.3,17-9.8,22.7c-6.5,5.8-15.3,8.7-26.2,8.7L626.6,76.9L626.6,76.9z M626.2,55.7h10.1c8.9,0,13.3-3.3,13.3-9.8
	c0-6.2-4.1-9.2-12.3-9.2h-11.1L626.2,55.7L626.2,55.7z"/>
<path class="st2" d="M762.5,112.7h-27.4c-0.7-3.1-1-6.5-1-10.3c-5.2,7.8-13.1,11.8-23.6,11.8c-8.7,0-15.2-2.2-19.5-6.6
	c-4.3-4.4-6.5-9.5-6.5-15.2c0-7.8,3.5-14,10.6-18.8c7-4.8,19.5-7.7,37.5-8.6v-1.7c0-3.2-0.7-5.4-2.2-6.4c-1.5-1.1-3.6-1.6-6.5-1.6
	c-6.6,0-10.3,2.7-11.1,8l-26.3-2.5c3.8-15.4,16.5-23,38.3-23c5.9,0,11.4,0.6,16.3,1.8c5,1.2,8.9,3,11.8,5.5s4.8,5.2,5.8,7.9
	c1,2.8,1.5,8.2,1.5,16.1v29.3C760.3,104,761,108.7,762.5,112.7z M732.6,78.3c-12.3,1.3-18.4,5.2-18.4,11.8c0,4.4,2.4,6.6,7.3,6.6
	c3.1,0,5.7-0.9,7.9-2.7c2.2-1.8,3.3-5.9,3.3-12.1V78.3z"/>
<path class="st2" d="M804,135.8h-28.8V39.3h26.5v10.4c3.7-7.9,10.6-11.9,20.7-11.9c8.8,0,15.6,3.4,20.6,10.2
	c5,6.8,7.4,16.1,7.4,27.8s-2.5,21.1-7.6,28s-11.8,10.4-20.1,10.4c-8.2,0-14.4-3.1-18.7-9.4V135.8z M804,85.8c0,3.3,0.8,5.8,2.2,7.6
	c1.5,1.8,3.3,2.7,5.6,2.7c3.5,0,5.8-1.6,7.2-4.8c1.3-3.2,2-8.1,2-14.8c0-7.7-0.8-13-2.2-16.1s-3.7-4.7-6.7-4.7
	c-1.8,0-3.5,0.7-5.3,2.1c-1.8,1.4-2.6,3.7-2.6,6.9L804,85.8L804,85.8z"/>
<path class="st2" d="M910.4,86.3l26.8,1.8c-1.6,7.2-5.6,13.4-12.2,18.4c-6.5,5.1-15.3,7.6-26.5,7.6c-12.4,0-22.2-3.6-29.6-10.7
	c-7.4-7.2-11-16-11-26.6c0-11,3.6-20.2,10.9-27.8s17-11.3,29.1-11.3c11.7,0,21.2,3.6,28.5,10.7c7.2,7.1,10.9,16.8,10.9,29.1
	c0,1,0,2.4-0.1,4.2h-49.2c0.1,4.6,0.9,8.1,2.5,10.3c1.5,2.2,4.5,3.4,8.8,3.4C905.6,95.3,909.3,92.3,910.4,86.3z M908.5,67.3
	c0-5-1-8.3-3-10c-1.9-1.7-4.3-2.6-7.2-2.6c-6.8,0-10.2,4.2-10.2,12.6H908.5z"/>
<path class="st2" d="M976.2,112.7h-27.6V39.3h24v15.2c2.7-11,9.1-16.5,19.1-16.5c1,0,2.4,0.1,4.2,0.3v25.6c-2-0.5-3.8-0.7-5.4-0.7
	c-9.5,0-14.3,5.3-14.3,16L976.2,112.7L976.2,112.7z"/>
<g class="st3">
	<path class="st4" d="M200.8,171.5c-4.1,0-7.4-1.3-10-3.9c-2.6-2.6-3.9-6.1-3.9-10.5c0-4.2,1.2-7.7,3.7-10.4
		c2.5-2.7,5.9-4.1,10.2-4.1c4,0,7.3,1.3,9.9,3.9s3.8,6,3.8,10.3c0,4.5-1.3,8-3.8,10.7C208.1,170.2,204.8,171.5,200.8,171.5z
		 M200.7,165.1c1.5,0,2.6-0.6,3.2-1.9c0.7-1.3,1-3.6,1-7c0-4.9-1.4-7.3-4.1-7.3c-2.9,0-4.4,2.8-4.4,8.3
		C196.5,162.5,197.9,165.1,200.7,165.1z"/>
	<path class="st4" d="M248.3,171.1H241l-7.9-12.4c-1-1.6-2-3.5-3.1-5.8c0.5,1.8,0.7,3.3,0.7,4.6v13.6h-7.2V143h8.4l6.8,10.3
		c1.3,2,2.4,3.8,3.1,5.4c-0.5-2.4-0.7-4.9-0.7-7.4V143h7.2V171.1z"/>
	<path class="st4" d="M278.8,164.2v6.9h-20.3V143h8.9v21.2H278.8z"/>
	<path class="st4" d="M296,143v28.1h-8.9V143H296z"/>
	<path class="st4" d="M331,171.1h-7.2l-7.9-12.4c-1-1.6-2-3.5-3.1-5.8c0.5,1.8,0.7,3.3,0.7,4.6v13.6h-7.2V143h8.4l6.8,10.3
		c1.3,2,2.4,3.8,3.1,5.4c-0.5-2.4-0.7-4.9-0.7-7.4V143h7.2V171.1z"/>
	<path class="st4" d="M363.1,164.4v6.7h-21.8V143h21.8v6.5H350v4.1h10.6v6.2H350v4.6H363.1z"/>
	<path class="st4" d="M409.6,164.4v6.7h-21.8V143h21.8v6.5h-13.1v4.1h10.6v6.2h-10.6v4.6H409.6z"/>
	<path class="st4" d="M415.3,163l8.3-1.4c0.7,2.3,2.5,3.4,5.4,3.4c2.2,0,3.4-0.6,3.4-1.7c0-0.6-0.3-1.1-0.8-1.4
		c-0.5-0.3-1.4-0.6-2.8-0.9c-5.1-0.9-8.3-2.2-9.8-3.7c-1.4-1.5-2.2-3.3-2.2-5.4c0-2.6,1-4.8,3.1-6.6s5.1-2.6,9-2.6
		c5.9,0,9.8,2.3,11.7,6.9l-7.4,2.2c-0.8-1.9-2.3-2.8-4.7-2.8c-1.9,0-2.9,0.6-2.9,1.7c0,0.5,0.2,0.9,0.7,1.2c0.4,0.3,1.3,0.6,2.5,0.8
		c3.5,0.7,5.9,1.3,7.4,1.9c1.5,0.5,2.7,1.5,3.7,2.8s1.5,2.9,1.5,4.7c0,2.8-1.2,5.1-3.6,6.9c-2.4,1.8-5.5,2.6-9.4,2.6
		C421.3,171.5,417,168.7,415.3,163z"/>
	<path class="st4" d="M446.9,163l8.3-1.4c0.7,2.3,2.5,3.4,5.4,3.4c2.2,0,3.4-0.6,3.4-1.7c0-0.6-0.3-1.1-0.8-1.4
		c-0.5-0.3-1.4-0.6-2.8-0.9c-5.1-0.9-8.3-2.2-9.8-3.7c-1.4-1.5-2.2-3.3-2.2-5.4c0-2.6,1-4.8,3.1-6.6s5.1-2.6,9-2.6
		c5.9,0,9.8,2.3,11.7,6.9l-7.4,2.2c-0.8-1.9-2.3-2.8-4.7-2.8c-1.9,0-2.9,0.6-2.9,1.7c0,0.5,0.2,0.9,0.7,1.2c0.4,0.3,1.3,0.6,2.5,0.8
		c3.5,0.7,5.9,1.3,7.4,1.9c1.5,0.5,2.7,1.5,3.7,2.8s1.5,2.9,1.5,4.7c0,2.8-1.2,5.1-3.6,6.9c-2.4,1.8-5.5,2.6-9.4,2.6
		C452.9,171.5,448.6,168.7,446.9,163z"/>
	<path class="st4" d="M497.2,171.1l-1.6-5.5h-7.8l-1.7,5.5h-7.2l8.9-28.1h9.4l9.1,28.1H497.2z M489.3,159.4h4.7l-2.3-8.1
		L489.3,159.4z"/>
	<path class="st4" d="M535.7,143l-9.1,16.2v11.9H518v-11.9l-9.8-16.2h9.7l5.1,9.3l4.9-9.3H535.7z"/>
	<path class="st4" d="M594.9,143l-7.7,28.1h-7.5l-4.1-15.5l-3.8,15.5h-7.8l-7.7-28.1h8.4l4.1,16.2l4-16.2h7l4.3,16.2l4.1-16.2H594.9
		z"/>
	<path class="st4" d="M628.7,171.1h-9.9l-4.2-10.7h-2.8v10.7h-8.9V143h15.1c3.3,0,5.9,0.8,7.8,2.3c1.8,1.5,2.8,3.5,2.8,6
		c0,1.6-0.3,3-1,4.3s-2.1,2.3-4.1,3.3L628.7,171.1z M611.8,154.4h3.8c1.1,0,2-0.2,2.7-0.7c0.7-0.5,1-1.1,1-2c0-1.8-1.1-2.7-3.4-2.7
		h-4.1V154.4z"/>
	<path class="st4" d="M647,143v28.1h-8.9V143H647z"/>
	<path class="st4" d="M669.2,149.8v21.3h-8.4v-21.3h-6V143h20.5v6.7H669.2z"/>
	<path class="st4" d="M691.8,143v28.1h-8.9V143H691.8z"/>
	<path class="st4" d="M726.8,171.1h-7.2l-7.9-12.4c-1-1.6-2-3.5-3.1-5.8c0.5,1.8,0.7,3.3,0.7,4.6v13.6H702V143h8.4l6.8,10.3
		c1.3,2,2.4,3.8,3.1,5.4c-0.5-2.4-0.7-4.9-0.7-7.4V143h7.2V171.1z"/>
	<path class="st4" d="M762.1,155.4v15.7h-4.4c-0.4-1.2-0.7-2.1-1.2-2.9c-1.8,2.2-4.5,3.4-8,3.4c-3.7,0-6.8-1.3-9.2-3.8
		s-3.6-6-3.6-10.3c0-4.2,1.2-7.7,3.5-10.6c2.3-2.9,5.8-4.3,10.4-4.3c3.5,0,6.2,0.9,8.3,2.5s3.5,4.1,4.1,7.2l-8.6,0.8
		c-0.4-2.9-1.7-4.4-4-4.4c-2.9,0-4.4,2.7-4.4,8.1c0,3.2,0.5,5.4,1.4,6.4c0.9,1,2.1,1.6,3.4,1.6c1.1,0,2-0.3,2.8-0.9
		c0.8-0.6,1.1-1.5,1.2-2.6H749v-6H762.1z"/>
	<path class="st4" d="M824.3,143l-7.7,28.1h-7.5l-4.1-15.5l-3.8,15.5h-7.8l-7.7-28.1h8.4l4.1,16.2l4-16.2h7l4.3,16.2l4.1-16.2H824.3
		z"/>
	<path class="st4" d="M854.1,164.4v6.7h-21.8V143h21.8v6.5H841v4.1h10.6v6.2H841v4.6H854.1z"/>
	<path class="st4" d="M862.8,171.1V143h14.7c3.1,0,5.3,0.7,6.7,2.2c1.4,1.5,2.1,3.2,2.1,5.1c0,1.4-0.4,2.7-1.2,3.8s-2,1.9-3.6,2.3
		c3.8,0.9,5.6,3.1,5.6,6.5c0,2.1-0.7,3.9-2,5.6c-1.3,1.6-4.2,2.5-8.5,2.5H862.8z M871,153.8h4.1c1,0,1.8-0.3,2.2-0.8s0.6-1,0.6-1.6
		c0-1.6-1-2.3-3-2.3h-4V153.8z M871,164.8h4.3c1.1,0,1.9-0.3,2.4-0.8c0.5-0.5,0.8-1.1,0.8-1.7c0-0.6-0.2-1.2-0.7-1.8
		s-1.4-0.8-2.7-0.8h-4V164.8z"/>
	<path class="st4" d="M892.9,163l8.3-1.4c0.7,2.3,2.5,3.4,5.4,3.4c2.2,0,3.4-0.6,3.4-1.7c0-0.6-0.3-1.1-0.8-1.4
		c-0.5-0.3-1.4-0.6-2.8-0.9c-5.1-0.9-8.3-2.2-9.8-3.7c-1.4-1.5-2.2-3.3-2.2-5.4c0-2.6,1-4.8,3.1-6.6s5.1-2.6,9-2.6
		c5.9,0,9.8,2.3,11.7,6.9l-7.4,2.2c-0.8-1.9-2.3-2.8-4.7-2.8c-1.9,0-2.9,0.6-2.9,1.7c0,0.5,0.2,0.9,0.7,1.2c0.4,0.3,1.3,0.6,2.5,0.8
		c3.5,0.7,5.9,1.3,7.4,1.9c1.5,0.5,2.7,1.5,3.7,2.8s1.5,2.9,1.5,4.7c0,2.8-1.2,5.1-3.6,6.9c-2.4,1.8-5.5,2.6-9.4,2.6
		C899,171.5,894.6,168.7,892.9,163z"/>
	<path class="st4" d="M936.4,143v28.1h-8.9V143H936.4z"/>
	<path class="st4" d="M958.6,149.8v21.3h-8.4v-21.3h-6V143h20.5v6.7H958.6z"/>
	<path class="st4" d="M994.1,164.4v6.7h-21.8V143h21.8v6.5H981v4.1h10.6v6.2H981v4.6H994.1z"/>
</g>
<g>
	<path class="st0" d="M488.4,91.1l22.6-4.1c1.9,6.4,6.8,9.6,14.6,9.6c6.1,0,9.2-1.6,9.2-4.9c0-1.7-0.7-3-2.1-4
		c-1.4-0.9-3.9-1.8-7.6-2.5c-13.9-2.7-22.8-6.1-26.8-10.4c-3.9-4.3-5.9-9.3-5.9-15.2c0-7.5,2.8-13.7,8.5-18.6s13.8-7.4,24.5-7.4
		c16.1,0,26.8,6.5,32,19.4l-20.1,6.1c-2.1-5.3-6.3-8-12.7-8c-5.3,0-8,1.6-8,4.9c0,1.5,0.6,2.6,1.8,3.4c1.2,0.8,3.5,1.6,7,2.3
		c9.5,2,16.2,3.8,20.2,5.3c4,1.5,7.3,4.2,10,7.9c2.7,3.7,4,8.1,4,13.2c0,8-3.3,14.5-9.8,19.5c-6.5,5-15,7.5-25.6,7.5
		C504.9,115.3,492.9,107.2,488.4,91.1z"/>
</g>
</svg>
