<svg id="Layer_1" data-name="Layer 1" xmlns="http://www.w3.org/2000/svg" viewBox="0 0 658.69 698.62"><defs><style>.cls-1{fill:#fff;}</style></defs><title>coreui-signet-white-logo</title><path class="cls-1" d="M580.68,131.18l.51.91-1.57-.91-35-20.24L364.62,7.05a30.25,30.25,0,0,0-30.24,0l-215,124.13H20.15l23.72,41.06L67.68,213.5l1.64,2.83V466.16a30.24,30.24,0,0,0,15.12,26.19L300.79,617.26l1.9,1.1-.62,1.11L326,660.83l23.55,40.79,48.71-84.36,73-42.14,35.69-20.6,38.56-22.26,69.13-39.91c.82-.48,1.61-1,2.37-1.52A30.24,30.24,0,0,0,629.55,469c.09-.93.13-1.86.13-2.8V216.33l.08-.14,2.22-3.83,0,0L654.71,173l1-1.8,0,0,23.08-40ZM330.27,69.79a30.21,30.21,0,0,1,30.23-.48l111.32,61.87H379.39L349,113.62l-30.42,17.56h-90.7ZM140.83,464.53a30.21,30.21,0,0,1-15.54-25.93l-1.14-70-.68-41.2-.28-17.76,10.26,17.78,23.83,41.27,10.89,18.86v39.21l34,19.61,44.4,76.9Zm282.48,25-.23.42-.54.95-.22.39L404.5,522.6l-25.74,45.3-5.93,10.43-23.59,41.53-23.89-41.37-9.7-16.8L272.54,487,204.29,368.8,183,331.89h.63l-2.5-4.35-12.94-22.4-46.36-80.3-6.48-11.23L92.05,173.3h.18l-.18-.32H239l1.78,3.09L262.69,214h-.4l3.66,6.35,41.43,71.75h-.1L259.74,292l-41.43-71.75-3.67-6.34-39.16-.1-12.51,0,5.2,9,49.6,85.89,11,19,1.86,3.23,77.76.2,9.12,0,12.83,0,11,19,11,19,1.86,3.23-12.83,0-9.12,0-77.76-.19-1.86-3.23h-.64l1.87,3.24L299,450.37l44.94,77.84h0l5,8.75,4.91-8.64,21-36.91-47.78-82.77,46.08.12h1.57l23.73,41.12.22-.39,22.94,39.73,2.59-1.5h0l.2-.12Zm139.4-31.84-4.81,2.88-12.58,7.54-65.65,39.34L452.07,524l18.57-32.18,26.74-46.32,32.39-18.7V389.38l8.85-15.33,36.8-63.75,2,120.92A30.2,30.2,0,0,1,562.71,457.65Zm42.64-283.73-22.17,38.39-1.62,2.81-7.48,13-44.31,76.76L519.5,322.62l-5.28,9.16-.09-.15L508,342.33l-12.33,21.35-5.29,9.15-6.17,10.7L470,408.16l-23.79,41.2,0,0L421.76,407.1l-18-31.12-2.07-3.58-1.86-3.23-11-19-11-19L376,327.91,310.26,214l-23.67-41h47.58l23.74,41.12L423.68,328l21.86,37.87,14.22-24.63,6.18-10.69,5.29-9.15-3.36-5.81L466,312.39,400.24,198.46,385.53,173H433.1l14.78,25.6L495,280.21,529.77,220l4.47-7.75-14.41,0h-3.05l-25.07,0v-38.5l.42-.73H605.89Z" transform="translate(-20.15 -3)"/></svg>