<?xml version="1.0" encoding="utf-8"?>
<!-- Generator: Adobe Illustrator 24.0.1, SVG Export Plug-In . SVG Version: 6.00 Build 0)  -->
<svg version="1.1" id="Layer_1" xmlns="http://www.w3.org/2000/svg" xmlns:xlink="http://www.w3.org/1999/xlink" x="0px" y="0px"
	 viewBox="0 0 1125 1125" style="enable-background:new 0 0 1125 1125;" xml:space="preserve">
<style type="text/css">
	.st0{fill:#0A2444;}
	.st1{display:none;fill:none;stroke:#000000;stroke-miterlimit:10;}
	.st2{fill:#E66030;}
</style>
<image style="display:none;overflow:visible;" width="800" height="600" xlink:href="6A598AC3.png"  transform="matrix(3.6088 0 0 3.6088 -881 -520.125)">
</image>
<path class="st0" d="M1006,233.3v0.4H339.7V1116h-0.6c-123.2,0-223.2-99.9-223.2-223.2V10h666.8C906.1,10,1006,110,1006,233.3z"/>
<polyline class="st1" points="339.7,1116 339.7,233.7 1006,233.7 "/>
<polyline class="st1" points="560.4,1116 560.4,887.5 1006,887.5 "/>
<polyline class="st1" points="891.5,676.4 560.4,676.4 560.4,447.2 891.5,447.2 "/>
<path class="st2" d="M1006,561.8c0,63.3-51.3,114.6-114.6,114.6H560.4V447.2h331.1C954.7,447.2,1006,498.5,1006,561.8z"/>
<path class="st0" d="M1006,887.5v1.3c0,125.5-101.7,227.2-227.2,227.2H560.4V887.5H1006z"/>
</svg>
